<svg xmlns="http://www.w3.org/2000/svg" xmlns:xlink="http://www.w3.org/1999/xlink" width="80" zoomAndPan="magnify" viewBox="0 0 60 60" height="80" preserveAspectRatio="xMidYMid meet" version="1.0"><defs><clipPath id="56dcbc45b6"><path d="M 4.050781 4.644531 L 55.050781 4.644531 L 55.050781 55.644531 L 4.050781 55.644531 Z M 4.050781 4.644531 " clip-rule="nonzero"/></clipPath></defs><g clip-path="url(#56dcbc45b6)"><path fill="#6ba518" d="M 21.898438 28.933594 L 32.703125 18.132812 C 32.972656 17.929688 33.269531 17.84375 33.605469 17.867188 C 33.9375 17.890625 34.222656 18.019531 34.457031 18.253906 C 34.695312 18.492188 34.824219 18.777344 34.847656 19.109375 C 34.871094 19.441406 34.785156 19.742188 34.582031 20.011719 L 24.71875 29.875 L 35.121094 40.277344 C 35.320312 40.542969 35.410156 40.84375 35.386719 41.175781 C 35.359375 41.507812 35.230469 41.792969 34.996094 42.03125 C 34.757812 42.265625 34.472656 42.394531 34.140625 42.417969 C 33.808594 42.445312 33.507812 42.355469 33.242188 42.15625 L 21.898438 30.8125 C 21.777344 30.695312 21.679688 30.558594 21.609375 30.402344 C 21.539062 30.242188 21.503906 30.078125 21.5 29.90625 C 21.496094 29.734375 21.523438 29.570312 21.585938 29.410156 C 21.644531 29.25 21.734375 29.105469 21.851562 28.980469 C 21.867188 28.964844 21.882812 28.949219 21.898438 28.933594 Z M 4.050781 30.144531 C 4.050781 29.308594 4.089844 28.476562 4.171875 27.644531 C 4.253906 26.8125 4.378906 25.988281 4.539062 25.167969 C 4.703125 24.347656 4.90625 23.539062 5.148438 22.742188 C 5.390625 21.941406 5.671875 21.15625 5.992188 20.382812 C 6.3125 19.613281 6.667969 18.859375 7.0625 18.121094 C 7.453125 17.386719 7.882812 16.671875 8.347656 15.976562 C 8.8125 15.28125 9.308594 14.613281 9.839844 13.964844 C 10.367188 13.320312 10.929688 12.703125 11.519531 12.113281 C 12.109375 11.519531 12.726562 10.960938 13.371094 10.429688 C 14.019531 9.902344 14.6875 9.40625 15.382812 8.941406 C 16.078125 8.476562 16.792969 8.046875 17.53125 7.652344 C 18.265625 7.261719 19.019531 6.902344 19.792969 6.585938 C 20.5625 6.265625 21.347656 5.984375 22.148438 5.742188 C 22.945312 5.5 23.757812 5.296875 24.574219 5.132812 C 25.394531 4.96875 26.21875 4.847656 27.050781 4.765625 C 27.882812 4.683594 28.714844 4.644531 29.550781 4.644531 C 30.386719 4.644531 31.21875 4.683594 32.050781 4.765625 C 32.878906 4.847656 33.707031 4.96875 34.523438 5.132812 C 35.34375 5.296875 36.152344 5.5 36.953125 5.742188 C 37.75 5.984375 38.535156 6.265625 39.308594 6.585938 C 40.078125 6.902344 40.835938 7.261719 41.570312 7.652344 C 42.308594 8.046875 43.023438 8.476562 43.71875 8.941406 C 44.410156 9.40625 45.082031 9.902344 45.726562 10.429688 C 46.371094 10.960938 46.992188 11.519531 47.582031 12.113281 C 48.171875 12.703125 48.730469 13.320312 49.261719 13.964844 C 49.792969 14.613281 50.289062 15.28125 50.753906 15.976562 C 51.214844 16.671875 51.644531 17.386719 52.039062 18.121094 C 52.433594 18.859375 52.789062 19.613281 53.109375 20.382812 C 53.429688 21.15625 53.710938 21.941406 53.953125 22.742188 C 54.195312 23.539062 54.398438 24.347656 54.558594 25.167969 C 54.722656 25.988281 54.84375 26.8125 54.925781 27.644531 C 55.007812 28.476562 55.050781 29.308594 55.050781 30.144531 C 55.050781 30.976562 55.007812 31.8125 54.925781 32.640625 C 54.84375 33.472656 54.722656 34.296875 54.558594 35.117188 C 54.398438 35.9375 54.195312 36.746094 53.953125 37.546875 C 53.710938 38.34375 53.429688 39.128906 53.109375 39.902344 C 52.789062 40.671875 52.433594 41.425781 52.039062 42.164062 C 51.644531 42.898438 51.214844 43.617188 50.753906 44.308594 C 50.289062 45.003906 49.792969 45.675781 49.261719 46.320312 C 48.730469 46.964844 48.171875 47.582031 47.582031 48.175781 C 46.992188 48.765625 46.371094 49.324219 45.726562 49.855469 C 45.082031 50.382812 44.410156 50.882812 43.71875 51.34375 C 43.023438 51.808594 42.308594 52.238281 41.570312 52.632812 C 40.835938 53.027344 40.078125 53.382812 39.308594 53.703125 C 38.535156 54.023438 37.75 54.300781 36.953125 54.546875 C 36.152344 54.789062 35.34375 54.988281 34.523438 55.152344 C 33.707031 55.316406 32.878906 55.4375 32.050781 55.519531 C 31.21875 55.601562 30.386719 55.644531 29.550781 55.644531 C 28.714844 55.644531 27.882812 55.601562 27.050781 55.519531 C 26.21875 55.4375 25.394531 55.316406 24.574219 55.152344 C 23.757812 54.988281 22.945312 54.789062 22.148438 54.546875 C 21.347656 54.300781 20.5625 54.023438 19.792969 53.703125 C 19.019531 53.382812 18.265625 53.027344 17.53125 52.632812 C 16.792969 52.238281 16.078125 51.808594 15.382812 51.34375 C 14.6875 50.882812 14.019531 50.382812 13.371094 49.855469 C 12.726562 49.324219 12.109375 48.765625 11.519531 48.175781 C 10.929688 47.582031 10.367188 46.964844 9.839844 46.320312 C 9.308594 45.675781 8.8125 45.003906 8.347656 44.308594 C 7.882812 43.617188 7.453125 42.898438 7.0625 42.164062 C 6.667969 41.425781 6.3125 40.671875 5.992188 39.902344 C 5.671875 39.128906 5.390625 38.34375 5.148438 37.546875 C 4.90625 36.746094 4.703125 35.9375 4.539062 35.117188 C 4.378906 34.296875 4.253906 33.472656 4.171875 32.640625 C 4.089844 31.8125 4.050781 30.976562 4.050781 30.144531 Z M 6.734375 30.144531 C 6.734375 30.640625 6.75 31.136719 6.785156 31.632812 C 6.816406 32.132812 6.867188 32.625 6.933594 33.121094 C 6.996094 33.613281 7.078125 34.105469 7.175781 34.59375 C 7.273438 35.082031 7.386719 35.566406 7.515625 36.046875 C 7.644531 36.527344 7.789062 37.003906 7.949219 37.472656 C 8.109375 37.945312 8.285156 38.410156 8.476562 38.871094 C 8.667969 39.332031 8.875 39.78125 9.09375 40.230469 C 9.316406 40.675781 9.550781 41.113281 9.800781 41.546875 C 10.046875 41.976562 10.3125 42.398438 10.589844 42.8125 C 10.867188 43.226562 11.15625 43.628906 11.457031 44.023438 C 11.761719 44.417969 12.078125 44.804688 12.40625 45.179688 C 12.734375 45.550781 13.074219 45.914062 13.425781 46.265625 C 13.78125 46.617188 14.144531 46.957031 14.515625 47.285156 C 14.890625 47.613281 15.277344 47.929688 15.671875 48.234375 C 16.066406 48.535156 16.472656 48.824219 16.886719 49.101562 C 17.300781 49.378906 17.722656 49.640625 18.152344 49.886719 C 18.585938 50.136719 19.023438 50.371094 19.46875 50.589844 C 19.917969 50.8125 20.371094 51.015625 20.832031 51.207031 C 21.289062 51.398438 21.757812 51.570312 22.226562 51.730469 C 22.699219 51.890625 23.175781 52.035156 23.65625 52.164062 C 24.136719 52.292969 24.621094 52.40625 25.109375 52.503906 C 25.597656 52.597656 26.089844 52.679688 26.582031 52.746094 C 27.078125 52.808594 27.570312 52.859375 28.066406 52.890625 C 28.566406 52.921875 29.0625 52.9375 29.558594 52.9375 C 30.058594 52.9375 30.554688 52.921875 31.050781 52.890625 C 31.546875 52.855469 32.042969 52.808594 32.539062 52.742188 C 33.03125 52.675781 33.523438 52.597656 34.011719 52.5 C 34.496094 52.402344 34.984375 52.289062 35.464844 52.160156 C 35.945312 52.03125 36.421875 51.886719 36.890625 51.726562 C 37.363281 51.566406 37.828125 51.390625 38.289062 51.199219 C 38.746094 51.007812 39.199219 50.804688 39.648438 50.582031 C 40.09375 50.363281 40.53125 50.128906 40.964844 49.878906 C 41.394531 49.628906 41.816406 49.367188 42.230469 49.089844 C 42.644531 48.8125 43.050781 48.523438 43.445312 48.21875 C 43.839844 47.917969 44.222656 47.601562 44.597656 47.273438 C 44.972656 46.945312 45.335938 46.605469 45.6875 46.253906 C 46.039062 45.902344 46.378906 45.539062 46.707031 45.164062 C 47.035156 44.789062 47.351562 44.402344 47.652344 44.007812 C 47.957031 43.613281 48.246094 43.210938 48.523438 42.796875 C 48.800781 42.382812 49.0625 41.957031 49.3125 41.527344 C 49.558594 41.097656 49.792969 40.65625 50.015625 40.210938 C 50.234375 39.765625 50.441406 39.3125 50.628906 38.851562 C 50.820312 38.390625 50.996094 37.925781 51.15625 37.453125 C 51.316406 36.984375 51.460938 36.507812 51.589844 36.027344 C 51.71875 35.546875 51.832031 35.0625 51.925781 34.574219 C 52.023438 34.085938 52.105469 33.59375 52.171875 33.101562 C 52.234375 32.605469 52.285156 32.113281 52.316406 31.613281 C 52.347656 31.117188 52.367188 30.621094 52.367188 30.121094 C 52.367188 29.625 52.347656 29.128906 52.316406 28.632812 C 52.285156 28.132812 52.234375 27.640625 52.171875 27.144531 C 52.105469 26.652344 52.023438 26.160156 51.925781 25.671875 C 51.832031 25.183594 51.71875 24.699219 51.589844 24.21875 C 51.460938 23.738281 51.316406 23.261719 51.15625 22.789062 C 50.996094 22.320312 50.820312 21.855469 50.628906 21.394531 C 50.441406 20.933594 50.234375 20.480469 50.015625 20.035156 C 49.792969 19.585938 49.558594 19.148438 49.3125 18.71875 C 49.0625 18.285156 48.800781 17.863281 48.523438 17.449219 C 48.246094 17.035156 47.957031 16.632812 47.652344 16.238281 C 47.351562 15.84375 47.035156 15.457031 46.707031 15.082031 C 46.378906 14.707031 46.039062 14.34375 45.6875 13.992188 C 45.335938 13.640625 44.972656 13.300781 44.597656 12.972656 C 44.222656 12.644531 43.839844 12.328125 43.445312 12.027344 C 43.050781 11.722656 42.644531 11.433594 42.230469 11.15625 C 41.816406 10.878906 41.394531 10.617188 40.964844 10.367188 C 40.53125 10.117188 40.09375 9.882812 39.648438 9.664062 C 39.199219 9.441406 38.746094 9.238281 38.289062 9.046875 C 37.828125 8.855469 37.363281 8.679688 36.890625 8.519531 C 36.421875 8.359375 35.945312 8.214844 35.464844 8.085938 C 34.984375 7.957031 34.496094 7.84375 34.011719 7.746094 C 33.523438 7.648438 33.03125 7.570312 32.539062 7.503906 C 32.042969 7.4375 31.546875 7.390625 31.050781 7.355469 C 30.554688 7.324219 30.058594 7.308594 29.558594 7.308594 C 29.0625 7.308594 28.566406 7.324219 28.066406 7.355469 C 27.570312 7.386719 27.078125 7.4375 26.582031 7.5 C 26.089844 7.566406 25.597656 7.644531 25.109375 7.742188 C 24.621094 7.839844 24.136719 7.953125 23.65625 8.082031 C 23.175781 8.210938 22.699219 8.355469 22.226562 8.515625 C 21.757812 8.671875 21.289062 8.847656 20.832031 9.039062 C 20.371094 9.230469 19.917969 9.433594 19.46875 9.652344 C 19.023438 9.875 18.585938 10.109375 18.152344 10.355469 C 17.722656 10.605469 17.300781 10.867188 16.886719 11.144531 C 16.472656 11.421875 16.066406 11.710938 15.671875 12.011719 C 15.277344 12.316406 14.890625 12.632812 14.515625 12.960938 C 14.144531 13.289062 13.78125 13.628906 13.425781 13.980469 C 13.074219 14.332031 12.734375 14.695312 12.40625 15.066406 C 12.078125 15.441406 11.761719 15.824219 11.457031 16.222656 C 11.15625 16.617188 10.867188 17.019531 10.589844 17.433594 C 10.3125 17.847656 10.046875 18.269531 9.800781 18.699219 C 9.550781 19.132812 9.316406 19.570312 9.09375 20.015625 C 8.875 20.460938 8.667969 20.914062 8.476562 21.375 C 8.285156 21.835938 8.109375 22.300781 7.949219 22.773438 C 7.789062 23.242188 7.644531 23.71875 7.515625 24.199219 C 7.386719 24.679688 7.273438 25.164062 7.175781 25.652344 C 7.078125 26.140625 6.996094 26.632812 6.933594 27.125 C 6.867188 27.621094 6.816406 28.113281 6.785156 28.609375 C 6.75 29.109375 6.734375 29.605469 6.734375 30.101562 Z M 6.734375 30.144531 " fill-opacity="1" fill-rule="nonzero"/></g></svg>